<?xml version="1.0" encoding="UTF-8"?>
<svg xmlns="http://www.w3.org/2000/svg" xmlns:xlink="http://www.w3.org/1999/xlink" width="375pt" height="374.999991pt" viewBox="0 0 375 374.999991" version="1.2">
<defs>
<clipPath id="clip1">
  <path d="M 214 35.15625 L 375 35.15625 L 375 51 L 214 51 Z M 214 35.15625 "/>
</clipPath>
<clipPath id="clip2">
  <path d="M 33 137 L 342 137 L 342 337.40625 L 33 337.40625 Z M 33 137 "/>
</clipPath>
</defs>
<g id="surface1">
<path style=" stroke:none;fill-rule:nonzero;fill:rgb(85.099792%,85.099792%,85.099792%);fill-opacity:1;" d="M 0.925781 66.023438 L 160.179688 52.886719 L 160.179688 54.863281 L 1.09375 67.984375 L 1.003906 67.988281 C 0.5 67.988281 0.0703125 67.589844 0.03125 67.082031 C -0.015625 66.542969 0.390625 66.070312 0.925781 66.023438 "/>
<g clip-path="url(#clip1)" clip-rule="nonzero">
<path style=" stroke:none;fill-rule:nonzero;fill:rgb(85.099792%,85.099792%,85.099792%);fill-opacity:1;" d="M 214.820312 48.382812 L 373.90625 35.265625 L 373.914062 35.265625 C 374.5 35.265625 374.925781 35.660156 374.972656 36.164062 C 374.992188 36.425781 374.90625 36.675781 374.738281 36.878906 C 374.566406 37.082031 374.332031 37.199219 374.070312 37.222656 L 214.820312 50.355469 L 214.820312 48.382812 "/>
</g>
<path style=" stroke:none;fill-rule:nonzero;fill:rgb(85.099792%,85.099792%,85.099792%);fill-opacity:1;" d="M 185.90625 134.550781 L 185.90625 64.519531 L 192.171875 64.519531 L 192.171875 134.550781 L 185.90625 134.550781 "/>
<g clip-path="url(#clip2)" clip-rule="nonzero">
<path style=" stroke:none;fill-rule:nonzero;fill:rgb(85.099792%,85.099792%,85.099792%);fill-opacity:1;" d="M 44.757812 239.8125 C 45.039062 188.652344 73.167969 147.074219 107.535156 147.074219 L 131.035156 147.074219 C 131.878906 147.074219 132.566406 147.757812 132.566406 148.605469 L 132.566406 240.070312 C 132.566406 240.914062 131.878906 241.601562 131.035156 241.601562 L 46.265625 241.601562 C 45.421875 241.601562 44.734375 240.914062 44.734375 240.070312 Z M 138.886719 148.605469 C 138.886719 147.757812 139.570312 147.074219 140.417969 147.074219 L 234.578125 147.074219 C 235.425781 147.074219 236.109375 147.757812 236.109375 148.605469 L 236.109375 240.070312 C 236.109375 240.914062 235.425781 241.601562 234.578125 241.601562 L 140.417969 241.601562 C 139.570312 241.601562 138.886719 240.914062 138.886719 240.070312 Z M 140.613281 251.785156 C 140.613281 249.214844 142.703125 247.125 145.277344 247.125 L 181.246094 247.125 C 183.816406 247.125 185.90625 249.214844 185.90625 251.785156 C 185.90625 254.351562 183.816406 256.441406 181.246094 256.441406 L 145.277344 256.441406 C 142.703125 256.441406 140.613281 254.351562 140.613281 251.785156 Z M 242.433594 148.605469 C 242.433594 147.757812 243.121094 147.074219 243.964844 147.074219 L 267.46875 147.074219 C 301.886719 147.074219 330.050781 188.792969 330.246094 240.066406 C 330.246094 240.472656 330.089844 240.863281 329.796875 241.152344 C 329.511719 241.441406 329.117188 241.601562 328.714844 241.601562 L 243.964844 241.601562 C 243.121094 241.601562 242.433594 240.914062 242.433594 240.070312 Z M 33.410156 237.457031 C 33.410156 292.507812 63.003906 337.296875 99.378906 337.296875 L 275.625 337.296875 C 311.996094 337.296875 341.585938 292.507812 341.585938 237.457031 C 341.585938 182.402344 311.996094 137.613281 275.625 137.613281 L 99.378906 137.613281 C 63.003906 137.613281 33.410156 182.402344 33.410156 237.457031 "/>
</g>
<path style=" stroke:none;fill-rule:nonzero;fill:rgb(85.099792%,85.099792%,85.099792%);fill-opacity:1;" d="M 145.277344 250.1875 L 181.246094 250.1875 C 182.128906 250.1875 182.84375 250.898438 182.84375 251.785156 C 182.84375 252.664062 182.128906 253.375 181.246094 253.375 L 145.277344 253.375 C 144.394531 253.375 143.675781 252.664062 143.675781 251.785156 C 143.675781 250.898438 144.394531 250.1875 145.277344 250.1875 "/>
<path style=" stroke:none;fill-rule:nonzero;fill:rgb(85.099792%,85.099792%,85.099792%);fill-opacity:1;" d="M 208.773438 61.453125 L 166.226562 61.453125 C 164.578125 61.453125 163.242188 60.113281 163.242188 58.472656 L 163.242188 44.773438 C 163.242188 43.128906 164.578125 41.789062 166.226562 41.789062 L 208.773438 41.789062 C 210.414062 41.789062 211.757812 43.128906 211.757812 44.773438 L 211.757812 58.472656 C 211.757812 60.113281 210.414062 61.453125 208.773438 61.453125 "/>
</g>
</svg>
