<?xml version="1.0" encoding="UTF-8"?>
<svg xmlns="http://www.w3.org/2000/svg" xmlns:xlink="http://www.w3.org/1999/xlink" width="375pt" height="374.999991pt" viewBox="0 0 375 374.999991" version="1.2">
<defs>
<clipPath id="clip1">
  <path d="M 214 35.15625 L 375 35.15625 L 375 51 L 214 51 Z M 214 35.15625 "/>
</clipPath>
<clipPath id="clip2">
  <path d="M 33 137 L 342 137 L 342 337.3125 L 33 337.3125 Z M 33 137 "/>
</clipPath>
</defs>
<g id="surface1">
<path style=" stroke:none;fill-rule:nonzero;fill:rgb(13.729858%,12.159729%,12.548828%);fill-opacity:1;" d="M 0.925781 66.015625 L 160.179688 52.882812 L 160.179688 54.855469 L 1.09375 67.972656 L 1.003906 67.976562 C 0.5 67.976562 0.0703125 67.578125 0.03125 67.070312 C -0.015625 66.535156 0.390625 66.058594 0.925781 66.015625 "/>
<g clip-path="url(#clip1)" clip-rule="nonzero">
<path style=" stroke:none;fill-rule:nonzero;fill:rgb(13.729858%,12.159729%,12.548828%);fill-opacity:1;" d="M 214.820312 48.378906 L 373.90625 35.265625 L 373.914062 35.265625 C 374.5 35.265625 374.925781 35.660156 374.972656 36.164062 C 374.992188 36.425781 374.90625 36.675781 374.738281 36.878906 C 374.566406 37.078125 374.332031 37.199219 374.070312 37.222656 L 214.820312 50.351562 L 214.820312 48.378906 "/>
</g>
<path style=" stroke:none;fill-rule:nonzero;fill:rgb(13.729858%,12.159729%,12.548828%);fill-opacity:1;" d="M 185.90625 134.519531 L 185.90625 64.507812 L 192.171875 64.507812 L 192.171875 134.519531 L 185.90625 134.519531 "/>
<g clip-path="url(#clip2)" clip-rule="nonzero">
<path style=" stroke:none;fill-rule:nonzero;fill:rgb(13.729858%,12.159729%,12.548828%);fill-opacity:1;" d="M 44.757812 239.75 C 45.039062 188.605469 73.167969 147.039062 107.535156 147.039062 L 131.035156 147.039062 C 131.878906 147.039062 132.566406 147.722656 132.566406 148.570312 L 132.566406 240.003906 C 132.566406 240.851562 131.878906 241.535156 131.035156 241.535156 L 46.265625 241.535156 C 45.421875 241.535156 44.734375 240.851562 44.734375 240.003906 Z M 138.886719 148.570312 C 138.886719 147.722656 139.570312 147.039062 140.417969 147.039062 L 234.578125 147.039062 C 235.425781 147.039062 236.109375 147.722656 236.109375 148.570312 L 236.109375 240.003906 C 236.109375 240.851562 235.425781 241.535156 234.578125 241.535156 L 140.417969 241.535156 C 139.570312 241.535156 138.886719 240.851562 138.886719 240.003906 Z M 140.613281 251.71875 C 140.613281 249.148438 142.703125 247.058594 145.277344 247.058594 L 181.246094 247.058594 C 183.816406 247.058594 185.90625 249.148438 185.90625 251.71875 C 185.90625 254.28125 183.816406 256.371094 181.246094 256.371094 L 145.277344 256.371094 C 142.703125 256.371094 140.613281 254.28125 140.613281 251.71875 Z M 242.433594 148.570312 C 242.433594 147.722656 243.121094 147.039062 243.964844 147.039062 L 267.46875 147.039062 C 301.886719 147.039062 330.050781 188.742188 330.246094 240 C 330.246094 240.40625 330.089844 240.796875 329.796875 241.089844 C 329.511719 241.375 329.117188 241.535156 328.714844 241.535156 L 243.964844 241.535156 C 243.121094 241.535156 242.433594 240.851562 242.433594 240.003906 Z M 33.410156 237.394531 C 33.410156 292.425781 63.003906 337.203125 99.378906 337.203125 L 275.625 337.203125 C 311.996094 337.203125 341.585938 292.425781 341.585938 237.394531 C 341.585938 182.355469 311.996094 137.582031 275.625 137.582031 L 99.378906 137.582031 C 63.003906 137.582031 33.410156 182.355469 33.410156 237.394531 "/>
</g>
<path style=" stroke:none;fill-rule:nonzero;fill:rgb(13.729858%,12.159729%,12.548828%);fill-opacity:1;" d="M 145.277344 250.121094 L 181.246094 250.121094 C 182.128906 250.121094 182.84375 250.832031 182.84375 251.71875 C 182.84375 252.59375 182.128906 253.308594 181.246094 253.308594 L 145.277344 253.308594 C 144.394531 253.308594 143.675781 252.59375 143.675781 251.71875 C 143.675781 250.832031 144.394531 250.121094 145.277344 250.121094 "/>
<path style=" stroke:none;fill-rule:nonzero;fill:rgb(13.729858%,12.159729%,12.548828%);fill-opacity:1;" d="M 208.773438 61.445312 L 166.226562 61.445312 C 164.578125 61.445312 163.242188 60.105469 163.242188 58.464844 L 163.242188 44.769531 C 163.242188 43.128906 164.578125 41.789062 166.226562 41.789062 L 208.773438 41.789062 C 210.414062 41.789062 211.757812 43.128906 211.757812 44.769531 L 211.757812 58.464844 C 211.757812 60.105469 210.414062 61.445312 208.773438 61.445312 "/>
</g>
</svg>
